<svg width="2227" height="2829" viewBox="0 0 2227 2829" fill="none" xmlns="http://www.w3.org/2000/svg">
<path fill-rule="evenodd" clip-rule="evenodd" d="M921.41 2557.87C987.968 2562.81 1060.48 2550.01 1130.45 2552.3C1203.06 2554.68 1256.43 2568.08 1328.35 2571.19C1465.05 2577.11 1648.7 2557.79 1742.44 2578.8C1820.74 2596.36 1654.34 2624.13 1669.2 2647.6C1684.76 2672.18 1830.2 2689.13 1827.97 2713.91C1825.88 2737.29 1765.88 2766.1 1657.82 2774.32C1518.83 2784.89 1369.55 2763.2 1221.94 2759.99C1151.9 2758.46 1071.03 2752.36 1012.4 2760.27C906.168 2774.61 889.871 2809.03 775.024 2820.32C676.905 2829.96 497.273 2835.46 451.548 2815.4C383.398 2785.5 613.262 2749.14 544.732 2719.28C493.923 2697.14 289.964 2718.51 194.823 2703.53C113.131 2690.66 48.7696 2665.9 78.294 2645.81C110.666 2623.78 278.124 2622.17 342.231 2603.2C395.682 2587.39 355.162 2563.54 409.428 2547.84C463.689 2532.15 549.068 2514.29 643.21 2516.13C759.048 2518.4 812.136 2549.76 921.41 2557.87Z" fill="#C55337"/>
<path d="M913 1431L921 1437" stroke="black"/>
<path d="M755.415 599.336H512.9V809.448H755.415V599.336Z" fill="#C55337"/>
<path opacity="0.1" d="M755.632 600.01H513.117V810.123H755.632V600.01Z" fill="black"/>
<path d="M390.592 1347.53L119.311 1242.95C119.311 1242.95 36.2447 1190.11 16.2459 1155.6C32.9989 1070.14 178.076 1226.47 178.076 1226.47L414.269 1304.78L390.592 1347.53Z" fill="#FFD7DB"/>
<path d="M549.687 600.156C549.687 600.156 565.379 734.342 544.817 746.786C524.255 759.231 515.598 797.647 515.598 797.647L592.434 837.686L723.38 812.256L718.51 746.245C718.51 746.245 655.742 741.376 668.729 709.453C676.968 688.604 683.307 667.054 687.667 645.065L549.687 600.156Z" fill="#FFD7DB"/>
<path opacity="0.1" d="M549.687 600.156C549.687 600.156 565.379 734.342 544.817 746.786C524.255 759.231 515.598 797.647 515.598 797.647L592.434 837.686L723.38 812.256L718.51 746.245C718.51 746.245 655.742 741.376 668.729 709.453C676.968 688.604 683.307 667.054 687.667 645.065L549.687 600.156Z" fill="black"/>
<path d="M636.804 1980.97C628.208 2007.64 633.016 2133.18 635.552 2187.19C636.36 2204.4 636.353 2221.62 635.53 2238.84L629.769 2360.26L629.91 2363.94L636.804 2543.14L571.871 2535.57L567.001 2437.63C567.001 2437.63 560.974 2414.19 552.468 2378.91C529.341 2283.03 487.893 2099.71 499.364 2062.13C515.056 2010.73 476.097 1819.19 476.097 1819.19L612.454 1794.84C612.454 1794.84 648.53 1944.58 636.804 1980.97Z" fill="#FFD7DB"/>
<path d="M958.217 2565.12L920.34 2586.76C920.34 2586.76 851.62 2560.25 847.832 2559.16C844.045 2558.08 839.716 2501.27 839.716 2501.27C839.716 2501.27 830.777 2442.97 819.56 2383.32C811.66 2341.29 802.634 2298.58 794.805 2275.1C775.866 2218.29 778.031 2028.91 775.866 2016.47C773.702 2004.03 707.146 1773.53 707.146 1773.53C707.146 1773.53 851.62 1746.48 870.017 1762.71C888.415 1778.94 905.73 1974.81 904.648 2016.47C903.566 2058.13 909.518 2309.73 909.518 2309.73C909.518 2309.73 910.259 2346.32 911.417 2385.33C912.24 2412.9 913.268 2441.68 914.388 2459.61C916.057 2485.48 927.009 2509.88 945.231 2528.32L958.217 2565.12Z" fill="#FFD7DB"/>
<path d="M898.155 2556.46C898.155 2556.46 860.819 2507.22 947.936 2511.01C947.936 2511.01 956.052 2519.67 971.744 2540.77C987.436 2561.87 1089.7 2641.41 1038.3 2656.56C986.895 2671.71 920.737 2680.21 900.703 2664.96C871.488 2672.11 841.135 2673.33 811.442 2668.53C811.442 2668.53 817.531 2570.53 822.401 2559.16C827.27 2547.8 832.682 2490.45 832.682 2490.45L891.661 2565.66L898.155 2556.46Z" fill="#2F2E41"/>
<path d="M629 711C690.262 711 752.058 629.492 752.058 568.233C752.058 506.974 702.395 457.314 641.132 457.314C579.87 457.314 530.207 506.974 530.207 568.233C530.207 629.492 567.737 711 629 711Z" fill="#FFD7DB"/>
<path opacity="0.1" d="M466.357 1044.92C466.357 1044.92 445.796 1299.76 443.09 1299.76C441.028 1299.76 423.913 1301.02 403.206 1302.09C404.154 1299.62 405.571 1297.36 407.377 1295.43C420.905 1282.99 427.398 1189.92 427.398 1189.92L409.001 1022.19L424.963 875.832C433.101 859.87 414.953 851.754 414.953 851.754L446.878 849.049C446.878 849.049 461.487 907.484 462.569 913.977C463.652 920.47 466.357 1044.92 466.357 1044.92Z" fill="black"/>
<path d="M818.072 772.758C818.072 772.758 715.263 730.554 707.687 734.342C700.112 738.13 679.55 753.279 679.55 753.279C679.55 753.279 631.392 803.599 566.461 788.99C566.461 788.99 544.275 778.169 544.816 746.787C544.816 746.787 477.179 783.038 456.076 806.845C434.973 830.653 414.953 851.754 414.953 851.754L425.234 1022.19L443.631 1189.92C443.631 1189.92 437.138 1282.99 423.61 1295.43C410.083 1307.88 392.768 1415.55 412.788 1590.86C432.809 1766.16 391.685 1824.06 415.494 1839.75C439.302 1855.44 621.112 1845.16 726.085 1850.03C831.058 1854.9 896.531 1825.68 891.12 1818.11C885.709 1810.53 861.901 1538.91 879.757 1462.08C897.613 1385.25 884.086 1224.01 884.086 1224.01L818.072 772.758Z" fill="#2F2E41"/>
<path d="M788.311 1258.64C788.311 1258.64 760.174 1478.31 740.695 1498.33C721.215 1518.35 714.181 1677.43 748.27 1677.43C782.359 1677.43 813.202 1501.58 813.202 1501.58L865.147 1263.51L788.311 1258.64Z" fill="#FFD7DB"/>
<path d="M539.947 2534.48C539.947 2534.48 610.29 2486.87 647.626 2534.48C647.626 2534.48 663.317 2640.53 647.626 2652.44C631.934 2664.34 524.796 2684.36 522.632 2652.44C520.467 2620.51 528.043 2605.9 528.043 2605.9L539.947 2562.62L539.947 2534.48Z" fill="#2F2E41"/>
<path opacity="0.1" d="M808.603 801.705L805.086 783.038C805.086 783.038 884.086 867.986 897.073 941.572C910.059 1015.16 938.737 1091.45 918.717 1101.73C898.696 1112.01 882.463 1108.76 891.662 1125.54C900.86 1142.31 903.566 1162.33 894.367 1168.82C885.168 1175.31 878.675 1180.73 881.922 1194.25C885.168 1207.78 885.168 1235.37 878.675 1241.32C872.182 1247.28 855.949 1294.89 855.949 1294.89C855.949 1294.89 789.935 1273.25 765.044 1287.86C740.154 1302.47 761.256 1231.04 761.256 1231.04C761.256 1231.04 755.846 1202.37 747.729 1197.5C739.612 1192.63 734.743 1183.43 745.023 1173.69C755.304 1163.95 763.421 1163.95 749.352 1150.43C735.284 1136.9 716.345 1142.85 735.825 1128.78C755.304 1114.71 765.585 1108.22 752.599 1094.69C739.612 1081.17 728.249 1073.59 737.448 1061.69C746.647 1049.79 763.15 789.802 808.603 801.705Z" fill="black"/>
<path d="M799.674 776.004L818.072 772.758C818.072 772.758 897.072 857.706 910.059 931.292C923.045 1004.88 951.723 1081.17 931.702 1091.45C911.682 1101.73 895.449 1098.48 904.648 1115.26C913.846 1132.03 916.552 1152.05 907.353 1158.54C898.154 1165.03 891.661 1170.44 894.908 1183.97C898.154 1197.5 898.154 1225.09 891.661 1231.04C885.168 1237 868.935 1284.61 868.935 1284.61C868.935 1284.61 802.921 1262.97 778.03 1277.58C753.14 1292.19 774.243 1220.76 774.243 1220.76C774.243 1220.76 768.832 1192.09 760.715 1187.22C752.599 1182.35 747.729 1173.15 758.01 1163.41C768.291 1153.67 776.407 1153.67 762.339 1140.14C748.27 1126.62 729.332 1132.57 748.811 1118.5C768.291 1104.43 778.572 1097.94 765.585 1084.41C752.598 1070.89 741.235 1063.31 750.434 1051.41C759.633 1039.51 754.222 764.101 799.674 776.004Z" fill="#2F2E41"/>
<path d="M547.404 436.124C535.592 446.586 525.608 459.556 517.987 474.339C514.254 482.786 511.134 491.576 508.658 500.621C499.88 529.858 478.058 559.469 487.294 588.517C489.93 596.806 494.039 605.545 491.676 613.943C489.578 621.401 483.102 625.754 478.418 631.423C468.365 643.591 466.675 661.848 466.061 678.668C464.936 709.472 479.572 745.771 497.256 768.83C501.096 773.167 504.653 777.828 507.899 782.773C510.088 786.716 511.518 791.157 512.093 795.796C512.668 800.435 512.375 805.163 511.232 809.659L536.994 803.437C537.924 814.443 538.214 825.51 537.864 836.562C543.972 837.338 550.125 835.655 555.286 831.795C560.448 827.935 564.302 822.134 566.199 815.37C567.657 823.251 570.038 830.864 573.276 838C580.833 827.062 586.629 814.641 590.386 801.329C595.316 784.278 596.375 766.046 593.459 748.386C590.731 735.487 587.019 722.894 582.367 710.755C573.265 684.132 565.831 656.793 558.406 629.482C554.549 615.297 550.646 600.651 551.815 585.842L560.969 584.69C561.071 578.84 562.048 573.056 563.858 567.593C569.223 568.907 574.385 571.155 579.167 574.261L589.72 543.274C596.684 551.632 606.679 555.416 616.25 558.903L652.627 572.159L652.848 563.827C668.203 579.557 685.692 592.253 704.613 601.403C703.545 599.91 702.764 598.171 702.324 596.301C701.883 594.431 701.792 592.473 702.056 590.559C711.021 609.144 707.436 632.297 701.903 652.595C696.371 672.893 689.031 693.558 691.259 714.686C692.925 730.487 699.92 745.599 698.623 761.447C697.985 769.251 695.347 776.677 694.527 784.459C692.571 803.017 701.002 820.69 709.141 836.839L724.968 811.687C730.295 802.082 737.055 793.649 744.932 786.783C753.351 780.324 763.786 777.424 771.123 769.389C784.22 755.046 782.557 730.611 778.297 710.334C776.033 699.555 773.294 688.623 774.126 677.572C775.537 658.838 786.786 643.338 793.121 626.021C797.637 613.395 799.595 599.74 798.843 586.102C798.092 572.465 794.652 559.208 788.788 547.348C780.926 531.743 769.048 519.176 761.64 503.277C754.265 487.45 751.452 468.619 741.348 454.96C736.413 448.745 730.675 443.454 724.337 439.276C695.619 419.308 663.364 407.13 629.995 403.657C598.35 399.829 571.654 412.99 547.404 436.124Z" fill="#C55337"/>
<path d="M1167.08 308.936C1167.08 308.936 1145.44 325.065 1132.97 332.859C1120.5 340.653 1109.29 367.649 1115.41 392.395L1116.84 391.951C1116.84 391.951 1118.51 379.674 1139.29 370.867C1160.07 362.059 1190.63 349.427 1178.05 316.499L1167.08 308.936Z" fill="#3EC6FF"/>
<path d="M1174.49 293.7C1174.49 293.7 1257.26 136.304 1332.02 46.4524L1364.22 0L1367.97 1.97079L1339.49 51.5769C1339.49 51.5769 1215.88 284.367 1187.09 302.717L1174.49 293.7Z" fill="#2F2E41"/>
<path d="M1190.67 301.606L1174.34 289.435L1162.79 310.269C1164.61 312.965 1167.1 315.136 1170.02 316.567C1172.94 317.998 1176.19 318.637 1179.43 318.422L1190.67 301.606Z" fill="#3F3D56"/>
<path d="M1123.42 421.173C1123.42 427.088 1121.82 431.884 1119.85 431.884C1117.88 431.884 1116.28 427.088 1116.28 421.173C1116.42 417.334 1117.66 413.616 1119.85 410.462C1122.05 413.616 1123.28 417.334 1123.42 421.173V421.173Z" fill="#3EC6FF"/>
<path d="M1105.57 456.875C1107.54 456.875 1109.14 452.08 1109.14 446.165C1109.14 440.249 1107.54 435.454 1105.57 435.454C1103.6 435.454 1102 440.249 1102 446.165C1102 452.08 1103.6 456.875 1105.57 456.875Z" fill="#3EC6FF"/>
<path d="M1635.42 541.004C1593.98 568.087 1610.9 577.347 1611.98 590.04C1613.05 602.733 1573.13 629.304 1573.13 629.304L1573.12 629.314C1567.28 633.169 1562.69 638.65 1559.92 645.081C1557.15 651.512 1556.32 658.613 1557.53 665.509C1558.75 672.405 1561.95 678.795 1566.75 683.893C1571.55 688.991 1577.74 692.574 1584.55 694.202C1591.36 695.829 1598.5 695.429 1605.08 693.052C1611.67 690.675 1617.42 686.424 1621.62 680.822C1625.82 675.22 1628.29 668.512 1628.73 661.523C1629.17 654.535 1627.55 647.571 1624.08 641.489C1622.39 638.533 1620.29 635.836 1617.83 633.484C1597.12 608.684 1647.14 568.424 1647.14 568.424L1639.1 560.04C1636.86 557.479 1635.33 554.366 1634.69 551.021C1634.04 547.676 1634.29 544.219 1635.42 541.004V541.004ZM1605.35 678.421C1601.15 681.074 1596.25 682.421 1591.28 682.292C1586.31 682.162 1581.49 680.563 1577.43 677.695C1573.37 674.827 1570.26 670.819 1568.48 666.18C1566.69 661.54 1566.33 656.475 1567.42 651.627C1568.52 646.779 1571.03 642.365 1574.63 638.943C1578.24 635.521 1582.78 633.245 1587.68 632.403C1592.58 631.56 1597.61 632.189 1602.16 634.21C1606.7 636.231 1610.54 639.553 1613.19 643.756C1614.95 646.547 1616.14 649.657 1616.7 652.909C1617.26 656.162 1617.18 659.493 1616.45 662.712C1615.72 665.93 1614.37 668.975 1612.46 671.67C1610.56 674.365 1608.14 676.659 1605.35 678.421V678.421Z" fill="#2F2E41"/>
<path d="M1649.86 566.77L1774.42 499.879C1774.42 499.879 1787.7 493.014 1783.39 483.593L1627.21 547.719L1640.9 566.964L1649.86 566.77Z" fill="#3EC6FF"/>
<path d="M1638.45 554.176L1633.15 543.839C1633.15 543.839 1578.74 577.938 1562.08 550.255C1560.66 547.162 1558.8 544.29 1556.56 541.729C1551.93 536.21 1545.77 532.181 1538.86 530.146C1531.94 528.111 1524.58 528.161 1517.7 530.29C1510.81 532.419 1504.71 536.531 1500.15 542.113C1495.59 547.695 1492.78 554.497 1492.07 561.669C1491.36 568.84 1492.78 576.061 1496.16 582.428C1499.53 588.795 1504.71 594.025 1511.05 597.462C1517.38 600.899 1524.59 602.391 1531.77 601.751C1538.94 601.111 1545.77 598.367 1551.4 593.864L1551.41 593.858C1551.41 593.858 1589.58 564.828 1601.22 569.998C1612.86 575.168 1616.08 594.188 1655.23 563.885C1651.82 563.9 1648.47 563.009 1645.52 561.303C1642.57 559.597 1640.13 557.137 1638.45 554.176V554.176ZM1550.86 551.279C1553.96 555.161 1555.85 559.876 1556.27 564.829C1556.69 569.781 1555.64 574.748 1553.24 579.101C1550.84 583.454 1547.21 586.999 1542.79 589.286C1538.38 591.573 1533.39 592.5 1528.45 591.95C1523.51 591.401 1518.84 589.398 1515.04 586.196C1511.24 582.995 1508.47 578.738 1507.09 573.963C1505.71 569.189 1505.77 564.112 1507.28 559.375C1508.78 554.637 1511.65 550.451 1515.54 547.347C1520.74 543.185 1527.39 541.261 1534.01 541.998C1540.64 542.736 1546.7 546.074 1550.86 551.279V551.279Z" fill="#2F2E41"/>
<path d="M1630.94 545.136L1734.9 449.309C1734.9 449.309 1745.73 439.004 1753.22 446.164L1642.5 570.525L1627.82 553.541L1630.94 545.136Z" fill="#3EC6FF"/>
<ellipse cx="396" cy="1321.5" rx="24" ry="29.5" fill="#FFD7DB"/>
<path d="M466 1044.88C466 1044.88 437.934 1299.73 434.242 1299.73C431.428 1299.73 408.066 1300.99 379.801 1302.06C370.938 1302.4 361.603 1302.72 352.26 1302.98C313.115 1304.06 344.874 1263.48 347.09 1260.77C349.305 1258.07 338.966 1233.18 321.978 1212.62C304.991 1192.05 327.887 1206.12 344.874 1189.89C361.861 1173.66 346.351 1181.23 324.932 1168.25C303.514 1155.26 337.488 1150.93 355.214 1145.52C372.94 1140.11 354.475 1138.49 334.534 1129.29C314.592 1120.09 331.58 1078.42 334.534 994.013C336.275 953.128 350.342 913.03 375.724 876.596C381.575 867.945 388.297 859.625 395.835 851.705L439.411 849C439.411 849 459.353 907.438 460.83 913.932C462.307 920.425 466 1044.88 466 1044.88Z" fill="#2F2E41"/>
<path d="M1109.5 1935.26C1111.92 1931.69 1115.17 1917.31 1117.86 1900.71C1122.27 1873.45 1148.34 1850.26 1167.67 1869.98C1176.89 1879.38 1183.4 1891.14 1187.59 1902.53C1194.57 1921.54 1207.04 1933.7 1226.45 1939.48C1230.73 1940.75 1235.3 1942.71 1240.14 1945.71C1299.86 1982.86 1274.94 2099.65 1271.79 2133.01C1271.49 2136.2 1271.74 2139.38 1272.44 2142.5C1300.18 2266.4 1541.81 2304.42 1560.84 2415.36C1563.33 2429.9 1561.38 2440.04 1547.33 2556.43C1544.1 2583.17 1566.84 2606.38 1582.67 2584.59C1602.42 2557.41 1610.76 2508.68 1612.92 2474.19C1613.37 2467.06 1615.39 2460.14 1616.89 2453.16C1630.97 2387.62 1527.06 2248.06 1529.8 2144.58C1529.92 2140.03 1530.85 2135.58 1532.7 2131.42C1545.86 2101.7 1586.91 2044.24 1659.97 2105.39C1664 2108.77 1667.37 2112.97 1669.9 2117.59C1671.37 2120.28 1672.61 2122.66 1673.66 2124.83C1686.41 2151.16 1635.49 2166.42 1621.59 2192.17C1614.93 2204.49 1615.64 2214.63 1619.29 2228.15C1685.83 2474.69 1673.47 2544.16 1575.41 2647.87C1566.23 2657.58 1553.34 2662.92 1539.98 2662.92H1214.08C1189.24 2662.92 1163.78 2636.69 1186.02 2625.62C1190.69 2623.3 1195.56 2622.42 1199.31 2622.42C1237.32 2620.59 1256.21 2575.51 1230.87 2547.12L1227.69 2543.56C1222.98 2538.29 1219.45 2532 1217.67 2525.16C1205.29 2477.49 1208.97 2448.12 1218.87 2428.67C1234.71 2397.58 1237.46 2394.31 1217.62 2423.01C1211.98 2431.16 1206.73 2439.59 1202.19 2447.41C1196.28 2457.58 1194.95 2469.67 1195.92 2481.4C1197.22 2497.2 1197.4 2520.38 1193.43 2547.31C1188.9 2578.04 1172.08 2615.91 1158.48 2641.91C1151.43 2655.4 1137.95 2664.32 1122.74 2664.85C1096.15 2665.78 1065.74 2662.67 1065.74 2646.59C1065.74 2638.73 1069.67 2632.86 1075.36 2628.54C1092.59 2615.47 1113.51 2603.76 1117.31 2582.47C1122.8 2551.69 1127.29 2510.22 1123.8 2471.84C1123.29 2466.22 1121.57 2460.74 1119.1 2455.67C1092.98 2402.08 1107.61 2417.64 1065.74 2265.45C1057.11 2223.11 1101.71 2196.36 1103.9 2161.28C1104.86 2145.93 1089.78 2136.36 1075.01 2132.06C1044.91 2123.3 1035.27 2113.01 1030.01 2101.83C1023.48 2087.95 1025.18 2071.34 1034.51 2059.17C1037.77 2054.91 1040.7 2050.93 1042.32 2047.42C1043.42 2045.04 1043.56 2042.36 1043.06 2039.79C1041.62 2032.23 1037.21 2019 1034.65 2007.41C1032.69 1998.56 1035.08 1989.48 1040.36 1982.11C1072.23 1937.63 1103.76 1943.73 1109.5 1935.26Z" fill="black" stroke="black" stroke-width="4"/>
<path fill-rule="evenodd" clip-rule="evenodd" d="M1783.77 1059.13C1816.31 1071.06 1851.76 1040.15 1885.97 1045.68C1921.46 1051.42 1947.56 1083.78 1982.72 1091.3C2049.55 1105.6 2139.34 1058.94 2185.17 1109.69C2223.45 1152.09 2142.1 1219.17 2149.36 1275.86C2156.97 1335.22 2228.08 1376.17 2226.99 1436.01C2225.96 1492.48 2196.63 1562.09 2143.8 1581.93C2075.84 1607.46 2002.86 1555.08 1930.7 1547.31C1896.45 1543.63 1856.92 1528.88 1828.25 1548C1776.32 1582.63 1768.35 1665.76 1712.2 1693.02C1664.23 1716.32 1576.41 1729.61 1554.05 1681.16C1520.73 1608.94 1633.11 1521.12 1599.61 1448.98C1574.77 1395.51 1475.05 1447.14 1428.54 1410.95C1388.6 1379.87 1357.13 1320.07 1371.57 1271.53C1387.39 1218.32 1469.26 1214.44 1500.61 1168.63C1526.74 1130.43 1506.93 1072.83 1533.46 1034.91C1559.99 996.996 1601.73 953.865 1647.75 958.318C1704.39 963.798 1730.34 1039.54 1783.77 1059.13Z" fill="url(#paint0_linear)"/>
<defs>
<linearGradient id="paint0_linear" x1="1147.76" y1="946.066" x2="2138.34" y2="1449" gradientUnits="userSpaceOnUse">
<stop offset="0.54104" stop-color="#C55337"/>
<stop offset="1" stop-color="#2F2E41"/>
</linearGradient>
</defs>
</svg>
