<svg width="1770" height="2354" viewBox="0 0 1770 2354" fill="none" xmlns="http://www.w3.org/2000/svg">
<path fill-rule="evenodd" clip-rule="evenodd" d="M863.41 2082.87C929.968 2087.81 1002.48 2075.01 1072.45 2077.3C1145.06 2079.68 1198.43 2093.08 1270.35 2096.19C1407.05 2102.11 1590.7 2082.79 1684.44 2103.8C1762.74 2121.36 1596.34 2149.13 1611.2 2172.6C1626.76 2197.18 1772.2 2214.13 1769.97 2238.91C1767.88 2262.29 1707.88 2291.1 1599.82 2299.32C1460.83 2309.89 1311.55 2288.2 1163.94 2284.99C1093.9 2283.46 1013.03 2277.36 954.403 2285.27C848.168 2299.61 831.871 2334.03 717.024 2345.32C618.905 2354.96 439.273 2360.46 393.548 2340.4C325.398 2310.5 555.262 2274.14 486.732 2244.28C435.923 2222.14 231.964 2243.51 136.823 2228.53C55.1307 2215.66 -9.23045 2190.9 20.294 2170.81C52.6661 2148.78 220.124 2147.17 284.231 2128.2C337.682 2112.39 297.162 2088.54 351.428 2072.84C405.689 2057.15 491.067 2039.29 585.21 2041.13C701.048 2043.4 754.136 2074.76 863.41 2082.87Z" fill="#C55337"/>
<path d="M913 1028L921 1034" stroke="#19838C" stroke-width="9"/>
<path d="M755.415 196.336H512.9V406.448H755.415V196.336Z" fill="#C55337"/>
<path opacity="0.1" d="M755.632 197.01H513.117V407.123H755.632V197.01Z" fill="black"/>
<path d="M390.592 944.527L119.311 839.947C119.311 839.947 36.2447 787.112 16.2459 752.6C32.9989 667.137 178.076 823.467 178.076 823.467L414.269 901.78L390.592 944.527Z" fill="#FFD7DB"/>
<path d="M549.687 197.156C549.687 197.156 565.379 331.342 544.817 343.786C524.255 356.231 515.598 394.647 515.598 394.647L592.434 434.686L723.38 409.256L718.51 343.245C718.51 343.245 655.742 338.376 668.729 306.452C676.968 285.604 683.307 264.054 687.667 242.065L549.687 197.156Z" fill="#FFD7DB"/>
<path opacity="0.1" d="M549.687 197.156C549.687 197.156 565.379 331.342 544.817 343.786C524.255 356.231 515.598 394.647 515.598 394.647L592.434 434.686L723.38 409.256L718.51 343.245C718.51 343.245 655.742 338.376 668.729 306.452C676.968 285.604 683.307 264.054 687.667 242.065L549.687 197.156Z" fill="black"/>
<path d="M636.804 1577.97C628.208 1604.64 633.016 1730.18 635.552 1784.19C636.36 1801.4 636.353 1818.62 635.53 1835.84L629.769 1957.26L629.91 1960.94L636.804 2140.14L571.871 2132.57L567.001 2034.63C567.001 2034.63 560.974 2011.19 552.468 1975.91C529.341 1880.03 487.893 1696.71 499.364 1659.13C515.056 1607.73 476.097 1416.19 476.097 1416.19L612.454 1391.84C612.454 1391.84 648.53 1541.58 636.804 1577.97Z" fill="#FFD7DB"/>
<path d="M958.217 2162.12L920.34 2183.76C920.34 2183.76 851.62 2157.25 847.832 2156.16C844.045 2155.08 839.716 2098.27 839.716 2098.27C839.716 2098.27 830.777 2039.97 819.56 1980.32C811.66 1938.29 802.634 1895.58 794.805 1872.1C775.866 1815.29 778.031 1625.91 775.866 1613.47C773.702 1601.03 707.146 1370.53 707.146 1370.53C707.146 1370.53 851.62 1343.48 870.017 1359.71C888.415 1375.94 905.73 1571.81 904.648 1613.47C903.566 1655.13 909.518 1906.73 909.518 1906.73C909.518 1906.73 910.259 1943.32 911.417 1982.33C912.24 2009.9 913.268 2038.68 914.388 2056.61C916.057 2082.48 927.009 2106.88 945.231 2125.32L958.217 2162.12Z" fill="#FFD7DB"/>
<path d="M898.155 2153.46C898.155 2153.46 860.819 2104.22 947.936 2108.01C947.936 2108.01 956.052 2116.67 971.744 2137.77C987.436 2158.87 1089.7 2238.41 1038.3 2253.56C986.895 2268.71 920.737 2277.21 900.703 2261.96C871.488 2269.11 841.135 2270.33 811.442 2265.53C811.442 2265.53 817.531 2167.53 822.401 2156.16C827.27 2144.8 832.682 2087.45 832.682 2087.45L891.661 2162.66L898.155 2153.46Z" fill="#2F2E41"/>
<path d="M629 308C690.262 308 752.058 226.492 752.058 165.233C752.058 103.974 702.395 54.3137 641.132 54.3137C579.87 54.3137 530.207 103.974 530.207 165.233C530.207 226.492 567.737 308 629 308Z" fill="#FFD7DB"/>
<path opacity="0.1" d="M466.357 641.917C466.357 641.917 445.796 896.761 443.09 896.761C441.028 896.761 423.913 898.016 403.206 899.093C404.154 896.625 405.571 894.363 407.377 892.432C420.905 879.988 427.398 786.923 427.398 786.923L409.001 619.192L424.963 472.832C433.101 456.87 414.953 448.754 414.953 448.754L446.878 446.049C446.878 446.049 461.487 504.484 462.569 510.977C463.652 517.47 466.357 641.917 466.357 641.917Z" fill="black"/>
<path d="M818.072 369.758C818.072 369.758 715.263 327.554 707.687 331.342C700.112 335.13 679.55 350.279 679.55 350.279C679.55 350.279 631.392 400.599 566.461 385.99C566.461 385.99 544.275 375.169 544.816 343.787C544.816 343.787 477.179 380.038 456.076 403.845C434.973 427.653 414.953 448.754 414.953 448.754L425.234 619.191L443.631 786.923C443.631 786.923 437.138 879.987 423.61 892.432C410.083 904.877 392.768 1012.55 412.788 1187.86C432.809 1363.16 391.685 1421.06 415.494 1436.75C439.302 1452.44 621.112 1442.16 726.085 1447.03C831.058 1451.9 896.531 1422.68 891.12 1415.11C885.709 1407.53 861.901 1135.91 879.757 1059.08C897.613 982.25 884.086 821.011 884.086 821.011L818.072 369.758Z" fill="#19838C"/>
<path d="M788.311 855.639C788.311 855.639 760.174 1075.31 740.695 1095.33C721.215 1115.35 714.181 1274.43 748.27 1274.43C782.359 1274.43 813.202 1098.58 813.202 1098.58L865.147 860.509L788.311 855.639Z" fill="#FFD7DB"/>
<path d="M539.947 2131.48C539.947 2131.48 610.29 2083.87 647.626 2131.48C647.626 2131.48 663.317 2237.53 647.626 2249.44C631.934 2261.34 524.796 2281.36 522.632 2249.44C520.467 2217.51 528.043 2202.9 528.043 2202.9L539.947 2159.62L539.947 2131.48Z" fill="#2F2E41"/>
<path opacity="0.1" d="M808.603 398.705L805.086 380.038C805.086 380.038 884.086 464.986 897.073 538.572C910.059 612.157 938.737 688.448 918.717 698.729C898.696 709.009 882.463 705.763 891.662 722.536C900.86 739.309 903.566 759.329 894.367 765.822C885.168 772.315 878.675 777.725 881.922 791.252C885.168 804.779 885.168 832.373 878.675 838.325C872.182 844.277 855.949 891.891 855.949 891.891C855.949 891.891 789.935 870.248 765.044 884.857C740.154 899.466 761.256 828.045 761.256 828.045C761.256 828.045 755.846 799.368 747.729 794.498C739.612 789.629 734.743 780.43 745.023 770.691C755.304 760.952 763.421 760.952 749.352 747.425C735.284 733.898 716.345 739.85 735.825 725.782C755.304 711.714 765.585 705.222 752.599 691.695C739.612 678.168 728.249 670.593 737.448 658.69C746.647 646.786 763.15 386.802 808.603 398.705Z" fill="black"/>
<path d="M799.674 373.004L818.072 369.758C818.072 369.758 897.072 454.706 910.059 528.291C923.045 601.877 951.723 678.168 931.702 688.448C911.682 698.729 895.449 695.482 904.648 712.255C913.846 729.029 916.552 749.048 907.353 755.541C898.154 762.034 891.661 767.445 894.908 780.972C898.154 794.498 898.154 822.093 891.661 828.045C885.168 833.997 868.935 881.611 868.935 881.611C868.935 881.611 802.921 859.968 778.03 874.577C753.14 889.186 774.243 817.764 774.243 817.764C774.243 817.764 768.832 789.088 760.715 784.218C752.599 779.348 747.729 770.15 758.01 760.411C768.291 750.672 776.407 750.672 762.339 737.145C748.27 723.618 729.332 729.57 748.811 715.502C768.291 701.434 778.572 694.941 765.585 681.415C752.598 667.888 741.235 660.313 750.434 648.409C759.633 636.506 754.222 361.101 799.674 373.004Z" fill="#19838C"/>
<path d="M547.404 33.1236C535.592 43.5864 525.608 56.5557 517.987 71.339C514.254 79.7858 511.134 88.5764 508.658 97.6205C499.88 126.858 478.058 156.469 487.294 185.517C489.93 193.806 494.039 202.545 491.676 210.943C489.578 218.401 483.102 222.754 478.418 228.423C468.365 240.591 466.675 258.848 466.061 275.668C464.936 306.472 479.572 342.771 497.256 365.83C501.096 370.167 504.653 374.828 507.899 379.773C510.088 383.716 511.518 388.157 512.093 392.796C512.668 397.435 512.375 402.163 511.232 406.659L536.994 400.437C537.924 411.443 538.214 422.51 537.864 433.562C543.972 434.338 550.125 432.655 555.286 428.795C560.448 424.935 564.302 419.134 566.199 412.37C567.657 420.251 570.038 427.864 573.276 435C580.833 424.062 586.629 411.641 590.386 398.329C595.316 381.278 596.375 363.046 593.459 345.386C590.731 332.487 587.019 319.894 582.367 307.755C573.265 281.132 565.831 253.793 558.406 226.482C554.549 212.297 550.646 197.651 551.815 182.842L560.969 181.69C561.071 175.84 562.048 170.056 563.858 164.593C569.223 165.907 574.385 168.155 579.167 171.261L589.72 140.274C596.684 148.632 606.679 152.416 616.25 155.903L652.627 169.159L652.848 160.827C668.203 176.557 685.692 189.253 704.613 198.403C703.545 196.91 702.764 195.171 702.324 193.301C701.883 191.431 701.792 189.473 702.056 187.559C711.021 206.144 707.436 229.297 701.903 249.595C696.371 269.893 689.031 290.558 691.259 311.686C692.925 327.487 699.92 342.599 698.623 358.447C697.985 366.251 695.347 373.677 694.527 381.459C692.571 400.017 701.002 417.69 709.141 433.839L724.968 408.687C730.295 399.082 737.055 390.649 744.932 383.783C753.351 377.324 763.786 374.424 771.123 366.389C784.22 352.046 782.557 327.611 778.297 307.334C776.033 296.555 773.294 285.623 774.126 274.572C775.537 255.838 786.786 240.338 793.121 223.021C797.637 210.395 799.595 196.74 798.843 183.102C798.092 169.465 794.652 156.208 788.788 144.348C780.926 128.743 769.048 116.176 761.64 100.277C754.265 84.4505 751.452 65.6193 741.348 51.9604C736.413 45.7447 730.675 40.4536 724.337 36.2764C695.619 16.3083 663.364 4.13047 629.995 0.657447C598.35 -3.17106 571.654 9.99019 547.404 33.1236Z" fill="#C55337"/>
<ellipse cx="396" cy="918.5" rx="24" ry="29.5" fill="#FFD7DB"/>
<path d="M466 641.876C466 641.876 437.934 896.732 434.242 896.732C431.428 896.732 408.066 897.987 379.801 899.064C370.938 899.4 361.603 899.719 352.26 899.979C313.115 901.061 344.874 860.479 347.09 857.773C349.305 855.068 338.966 830.178 321.978 809.616C304.991 789.054 327.887 803.123 344.874 786.89C361.861 770.657 346.351 778.232 324.932 765.246C303.514 752.26 337.488 747.931 355.214 742.52C372.94 737.109 354.475 735.486 334.534 726.287C314.592 717.089 331.58 675.424 334.534 591.013C336.275 550.128 350.342 510.03 375.724 473.596C381.575 464.945 388.297 456.625 395.835 448.705L439.411 446C439.411 446 459.353 504.438 460.83 510.932C462.307 517.425 466 641.876 466 641.876Z" fill="#19838C"/>
<path d="M1109.5 1532.26C1111.92 1528.69 1115.17 1514.31 1117.86 1497.71C1122.27 1470.45 1148.34 1447.26 1167.67 1466.98C1176.89 1476.38 1183.4 1488.14 1187.59 1499.53C1194.57 1518.54 1207.04 1530.7 1226.45 1536.48C1230.73 1537.75 1235.3 1539.71 1240.14 1542.71C1299.86 1579.86 1274.94 1696.65 1271.79 1730.01C1271.49 1733.2 1271.74 1736.38 1272.44 1739.5C1300.18 1863.4 1541.81 1901.42 1560.84 2012.36C1563.33 2026.9 1561.38 2037.04 1547.33 2153.43C1544.1 2180.17 1566.84 2203.38 1582.67 2181.59C1602.42 2154.41 1610.76 2105.68 1612.92 2071.19C1613.37 2064.06 1615.39 2057.14 1616.89 2050.16C1630.97 1984.62 1527.06 1845.06 1529.8 1741.58C1529.92 1737.03 1530.85 1732.58 1532.7 1728.42C1545.86 1698.7 1586.91 1641.24 1659.97 1702.39C1664 1705.77 1667.37 1709.97 1669.9 1714.59C1671.37 1717.28 1672.61 1719.66 1673.66 1721.83C1686.41 1748.16 1635.49 1763.42 1621.59 1789.17C1614.93 1801.49 1615.64 1811.63 1619.29 1825.15C1685.83 2071.69 1673.47 2141.16 1575.41 2244.87C1566.23 2254.58 1553.34 2259.92 1539.98 2259.92H1214.08C1189.24 2259.92 1163.78 2233.69 1186.02 2222.62C1190.69 2220.3 1195.56 2219.42 1199.31 2219.42C1237.32 2217.59 1256.21 2172.51 1230.87 2144.12L1227.69 2140.56C1222.98 2135.29 1219.45 2129 1217.67 2122.16C1205.29 2074.49 1208.97 2045.12 1218.87 2025.67C1234.71 1994.58 1237.46 1991.31 1217.62 2020.01C1211.98 2028.16 1206.73 2036.59 1202.19 2044.41C1196.28 2054.58 1194.95 2066.67 1195.92 2078.4C1197.22 2094.2 1197.4 2117.38 1193.43 2144.31C1188.9 2175.04 1172.08 2212.91 1158.48 2238.91C1151.43 2252.4 1137.95 2261.32 1122.74 2261.85C1096.15 2262.78 1065.74 2259.67 1065.74 2243.59C1065.74 2235.73 1069.67 2229.86 1075.36 2225.54C1092.59 2212.47 1113.51 2200.76 1117.31 2179.47C1122.8 2148.69 1127.29 2107.22 1123.8 2068.84C1123.29 2063.22 1121.57 2057.74 1119.1 2052.67C1092.98 1999.08 1107.61 2014.64 1065.74 1862.45C1057.11 1820.11 1101.71 1793.36 1103.9 1758.28C1104.86 1742.93 1089.78 1733.36 1075.01 1729.06C1044.91 1720.3 1035.27 1710.01 1030.01 1698.83C1023.48 1684.95 1025.18 1668.34 1034.51 1656.17C1037.77 1651.91 1040.7 1647.93 1042.32 1644.42C1043.42 1642.04 1043.56 1639.36 1043.06 1636.79C1041.62 1629.23 1037.21 1616 1034.65 1604.41C1032.69 1595.56 1035.08 1586.48 1040.36 1579.11C1072.23 1534.63 1103.76 1540.73 1109.5 1532.26Z" fill="black" stroke="#19838C" stroke-width="9"/>
</svg>
